<svg width="60" height="60" viewBox="0 0 114 114" fill="none" xmlns="http://www.w3.org/2000/svg"><path fill-rule="evenodd" clip-rule="evenodd" d="M78.8747 75.0771C99.0289 48.041 107.877 14 107.877 14C79.3663 33.6627 15.8313 37.1036 12.759 92.7735C13.0048 92.5277 13.2506 92.2819 13.6193 92.0361C30.0867 70.1614 56.1398 72.2506 78.8747 75.0771Z" fill="#06846F" fill-opacity="0.4"></path><path fill-rule="evenodd" clip-rule="evenodd" d="M77.5229 64.0771C97.6771 37.041 106.525 3 106.525 3C78.0145 22.6627 14.4795 26.1036 11.4072 81.7735C11.653 81.5277 11.8988 81.2819 12.2675 81.0361C28.7349 59.1614 54.788 61.2506 77.5229 64.0771Z" fill="#05967D"></path><path fill-rule="evenodd" clip-rule="evenodd" d="M7.229 104.434C62.9118 130.065 108 75.9417 108 75.9417C80.2819 78.0569 28.2948 53.919 7.229 104.434Z" fill="#06846F" fill-opacity="0.4"></path><path fill-rule="evenodd" clip-rule="evenodd" d="M6 97.2578C61.547 122.574 106.525 69.1157 106.525 69.1157C78.8747 71.2048 27.0145 47.3639 6 97.2578Z" fill="#05967D"></path></svg>